<svg width="24" height="30" viewBox="0 -2 24 30" fill="none" xmlns="http://www.w3.org/2000/svg">
<path d="M20.7509 0.666992H3.24884C1.77292 0.666992 0.571289 1.89366 0.571289 3.41366V21.4403C0.571289 22.9603 1.77292 24.187 3.24884 24.187H18.0603L17.368 21.7203L19.0399 23.307L20.6203 24.8003L23.4284 27.3337V3.41366C23.4284 1.89366 22.2268 0.666992 20.7509 0.666992ZM15.7092 18.0803C15.7092 18.0803 15.239 17.507 14.8472 17.0003C16.5582 16.507 17.2113 15.4137 17.2113 15.4137C16.6758 15.7737 16.1664 16.027 15.7092 16.2003C15.0562 16.4803 14.4292 16.667 13.8154 16.7737C12.5615 17.0137 11.4121 16.947 10.4325 16.7603C9.68802 16.6137 9.04803 16.4003 8.51251 16.187C8.21211 16.067 7.88558 15.9203 7.55904 15.7337C7.51986 15.707 7.48068 15.6937 7.44149 15.667C7.41537 15.6537 7.40231 15.6403 7.38925 15.627C7.15415 15.4937 7.02353 15.4003 7.02353 15.4003C7.02353 15.4003 7.65047 16.467 9.30925 16.9737C8.91741 17.4803 8.43415 18.0803 8.43415 18.0803C5.54762 17.987 4.45047 16.0537 4.45047 16.0537C4.45047 11.7603 6.33129 8.28033 6.33129 8.28033C8.21211 6.84033 10.0015 6.88033 10.0015 6.88033L10.1321 7.04033C7.78109 7.73366 6.697 8.78699 6.697 8.78699C6.697 8.78699 6.98435 8.62699 7.46762 8.40033C8.86517 7.77366 9.97537 7.60033 10.4325 7.56033C10.5109 7.54699 10.5762 7.53366 10.6546 7.53366C11.4513 7.42699 12.3525 7.40033 13.2929 7.50699C14.5337 7.65366 15.866 8.02699 17.2244 8.78699C17.2244 8.78699 16.1925 7.78699 13.9721 7.09366L14.155 6.88033C14.155 6.88033 15.9444 6.84033 17.8252 8.28033C17.8252 8.28033 19.706 11.7603 19.706 16.0537C19.706 16.0537 18.5958 17.987 15.7092 18.0803Z" fill="white"/>
</svg>
