<svg width="28" height="27" viewBox="0 0 28 27" fill="none" xmlns="http://www.w3.org/2000/svg">
<path fill-rule="evenodd" clip-rule="evenodd" d="M14.0003 0.933594C6.66699 0.933594 0.666992 6.93359 0.666992 14.2669C0.666992 20.1336 4.53366 25.2003 9.73366 26.9336C10.4003 27.0669 10.667 26.6669 10.667 26.2669C10.667 26.0003 10.667 25.0669 10.667 24.0003C6.93366 24.8003 6.13366 22.2669 6.13366 22.2669C5.60033 20.8003 4.66699 20.2669 4.66699 20.2669C3.46699 19.4669 4.80033 19.4669 4.80033 19.4669C6.13366 19.6003 6.80033 20.8003 6.80033 20.8003C8.00033 22.9336 10.0003 22.4003 10.667 22.0003C10.8003 21.2003 11.067 20.5336 11.467 20.2669C8.53366 19.8669 5.33366 18.8003 5.33366 13.7336C5.33366 12.2669 5.86699 11.0669 6.66699 10.1336C6.66699 9.73359 6.26699 8.40026 6.93366 6.53359C6.93366 6.53359 8.00033 6.13359 10.5337 7.86693C11.6003 7.60026 12.8003 7.46693 13.867 7.46693C14.9337 7.46693 16.1337 7.60026 17.2003 7.86693C19.7337 6.13359 20.8003 6.53359 20.8003 6.53359C21.467 8.40026 21.067 9.73359 20.9337 10.0003C21.7337 10.9336 22.267 12.1336 22.267 13.6003C22.267 18.6669 19.2003 19.8669 16.1337 20.1336C16.667 20.5336 17.067 21.3336 17.067 22.6669C17.067 24.4003 17.067 25.8669 17.067 26.2669C17.067 26.6669 17.3337 27.0669 18.0003 26.9336C23.3337 25.2003 27.067 20.1336 27.067 14.2669C27.3337 6.93359 21.3337 0.933594 14.0003 0.933594Z" fill="white"/>
</svg>
