<svg width="64" height="56" viewBox="0 0 64 56" fill="none" xmlns="http://www.w3.org/2000/svg">
<path d="M12.6048 40.6949C13.4501 40.6949 14.1353 40.0096 14.1353 39.1643C14.1353 38.319 13.4501 37.6338 12.6048 37.6338C11.7595 37.6338 11.0742 38.319 11.0742 39.1643C11.0742 40.0096 11.7595 40.6949 12.6048 40.6949Z" fill="white"/>
<path d="M31.512 48.6172C30.6117 48.6172 29.9814 49.3374 29.9814 50.1477C29.9814 51.0481 30.7017 51.6783 31.512 51.6783C32.4123 51.6783 33.0425 50.958 33.0425 50.1477C33.0425 49.2474 32.3223 48.6172 31.512 48.6172Z" fill="white"/>
<path d="M31.512 7.65308C32.4123 7.65308 33.0425 6.93282 33.0425 6.12253C33.0425 5.31224 32.3223 4.50195 31.512 4.50195C30.6117 4.50195 29.9814 5.22221 29.9814 6.0325C29.9814 6.84279 30.6117 7.65308 31.512 7.65308Z" fill="white"/>
<path d="M50.4182 18.6373C51.3186 18.6373 51.9488 17.917 51.9488 17.1067C51.9488 16.2964 51.2285 15.5762 50.4182 15.5762C49.608 15.5762 48.8877 16.2964 48.8877 17.1067C48.8877 17.917 49.5179 18.6373 50.4182 18.6373Z" fill="white"/>
<path d="M12.6048 18.6365C13.5051 18.6365 14.1353 17.9162 14.1353 17.1059C14.1353 16.2956 13.5051 15.4854 12.6048 15.4854C11.7044 15.4854 11.0742 16.2056 11.0742 17.0159C11.0742 17.8262 11.7044 18.6365 12.6048 18.6365Z" fill="white"/>
<path d="M50.4182 40.6949C51.2635 40.6949 51.9488 40.0096 51.9488 39.1643C51.9488 38.319 51.2635 37.6338 50.4182 37.6338C49.5729 37.6338 48.8877 38.319 48.8877 39.1643C48.8877 40.0096 49.5729 40.6949 50.4182 40.6949Z" fill="white"/>
<path d="M31.512 26.5596C30.6117 26.5596 29.9814 27.2798 29.9814 28.0901C29.9814 28.9004 30.7017 29.6207 31.512 29.6207C32.4123 29.6207 33.0425 28.9004 33.0425 28.0901C33.0425 27.2798 32.3223 26.5596 31.512 26.5596Z" fill="white"/>
<path d="M61.9421 27.0997H41.955H41.865C41.7749 26.0193 41.5048 24.9389 41.0547 23.9486L47.2669 20.3473L48.1672 19.8071L47.0868 18.0064L46.1865 18.5466L40.0643 22.1479C39.3441 21.1576 38.4437 20.2572 37.3633 19.537L37.5434 19.2669L47.627 1.98071L48.1672 1.08039L46.3666 0L45.8264 0.900322L35.7428 18.0965L35.5627 18.3666C34.5723 18.0064 33.582 17.7363 32.5016 17.5563V10.6238V9.63344H30.4309V10.6238V17.5563C29.3505 17.6463 28.2701 17.9164 27.3698 18.3666L27.0997 18.0965L17.1061 0.900322L16.5659 0L14.7653 1.08039L15.3055 1.98071L25.299 19.1769L25.4791 19.4469C24.4887 20.1672 23.5884 21.0675 22.8682 22.0579L16.746 18.4566L15.8457 17.9164L14.7653 19.717L15.6656 20.2572L21.8778 23.8585C21.4277 24.8489 21.1576 25.9293 21.0675 27.0096H20.9775H1.08039H0V29.0804H1.08039H20.9775H21.0675C21.1576 30.1608 21.4277 31.2412 21.8778 32.2315L15.6656 35.8328L14.7653 36.373L15.8457 38.1736L16.746 37.6334L22.8682 34.0322C23.4984 34.9325 24.2187 35.6527 25.0289 36.283L24.7588 36.6431L14.8553 54.0193L14.3151 54.9196L16.1158 56L16.656 55.0997L26.6495 37.9035L26.8296 37.5434C27.91 38.0836 29.0804 38.4437 30.4309 38.5338V45.3762V46.4566H32.5016V45.3762V38.5338C33.8521 38.4437 35.0225 37.9936 36.1929 37.4534L36.373 37.7235L46.4566 55.0096L46.9968 55.91L48.7974 54.8296L48.2572 53.9293L38.2637 36.7331L38.0836 36.373C38.8939 35.7428 39.6142 35.0225 40.1543 34.2122L46.2765 37.8135L47.1769 38.3537L48.2572 36.5531L47.3569 36.0129L41.1447 32.4116C41.5949 31.4212 41.865 30.3408 41.955 29.2605H42.045H61.9421H63.0225V27.0997H61.9421ZM31.5113 36.373C26.9196 36.373 23.2283 32.6817 23.2283 28.09C23.2283 23.4984 26.9196 19.8071 31.5113 19.8071C36.1029 19.8071 39.7942 23.4984 39.7942 28.09C39.7942 32.6817 36.0129 36.373 31.5113 36.373Z" fill="white"/>
</svg>
