<svg width="28" height="22" viewBox="0 0 28 22" fill="none" xmlns="http://www.w3.org/2000/svg">
<path d="M9.05312 21.878C19.1161 21.878 24.6201 13.5409 24.6201 6.31108C24.6201 6.07428 24.6201 5.83855 24.6041 5.60388C25.6748 4.82939 26.5991 3.87042 27.3337 2.77188C26.3351 3.21434 25.2759 3.5045 24.1913 3.63268C25.3334 2.94893 26.1882 1.8735 26.5966 0.606548C25.5226 1.24383 24.3477 1.69296 23.1225 1.93455C22.2976 1.05741 21.2066 0.476594 20.0183 0.281975C18.8301 0.0873563 17.6108 0.289786 16.5492 0.85794C15.4876 1.42609 14.6428 2.3283 14.1456 3.42493C13.6484 4.52157 13.5265 5.75151 13.7987 6.92441C11.6235 6.81537 9.49557 6.2501 7.55301 5.26531C5.61044 4.28052 3.89668 2.89822 2.52299 1.20815C1.82336 2.41259 1.60907 3.8384 1.92377 5.19528C2.23847 6.55217 3.05848 7.7381 4.21686 8.51161C3.34618 8.48581 2.49449 8.25094 1.73366 7.82681C1.73366 7.84921 1.73366 7.87268 1.73366 7.89615C1.734 9.15931 2.17127 10.3835 2.97129 11.361C3.77132 12.3385 4.88484 13.0092 6.12299 13.2593C5.31752 13.479 4.47241 13.5111 3.65259 13.3532C4.0022 14.4403 4.68285 15.391 5.59933 16.0722C6.51582 16.7535 7.62231 17.1312 8.76406 17.1527C6.82671 18.6753 4.43346 19.5018 1.96939 19.4993C1.53409 19.4985 1.09921 19.4722 0.666992 19.4204C3.169 21.026 6.08023 21.8777 9.05312 21.8737" fill="white"/>
</svg>
